<svg width="19" height="20" viewBox="0 0 19 20" fill="none" xmlns="http://www.w3.org/2000/svg">
<g id="Frame 4">
<path id="Vector" d="M18.0071 18.8222L12.744 13.5591C13.7423 12.3267 14.3432 10.76 14.3432 9.05417C14.3432 5.09977 11.126 1.88257 7.17156 1.88257C3.21716 1.88257 0 5.09977 0 9.05417C0 13.0086 3.2172 16.2258 7.1716 16.2258C8.87742 16.2258 10.4442 15.6248 11.6766 14.6266L16.9396 19.8897C17.0871 20.0371 17.326 20.0371 17.4735 19.8897L18.0071 19.356C18.1545 19.2086 18.1545 18.9696 18.0071 18.8222ZM7.1716 14.7159C4.04952 14.7159 1.50982 12.1762 1.50982 9.05417C1.50982 5.93208 4.04952 3.39239 7.1716 3.39239C10.2937 3.39239 12.8334 5.93208 12.8334 9.05417C12.8334 12.1762 10.2937 14.7159 7.1716 14.7159Z" fill="#956D84"/>
</g>
</svg>
