<?xml version="1.0" encoding="UTF-8"?>
<!-- <svg style="width: 0; height: 0;" xmlns="http://www.w3.org/2000/svg" xmlns:xlink="http://www.w3.org/1999/xlink" width="0" height="0">
<symbol id="delivery" viewBox="0 0 22 22">
<g clip-path="url(#clip0_0_674)">
<g id="Group">
<g id="Group_2">
<g id="Group_3">
<path id="Vector" d="M5.1332 15.0334C4.52571 15.0334 4.0332 15.526 4.0332 16.1334C4.0332 16.7409 4.52567 17.2334 5.1332 17.2334C5.74074 17.2334 6.2332 16.741 6.2332 16.1334C6.23252 15.5262 5.74044 15.0341 5.1332 15.0334ZM5.1332 16.5001C4.93069 16.5001 4.76655 16.336 4.76655 16.1334C4.76655 15.9309 4.93069 15.7668 5.1332 15.7668C5.33571 15.7668 5.49986 15.9309 5.49986 16.1334C5.49964 16.3359 5.33563 16.4999 5.1332 16.5001Z"/>
<path id="Vector_2" d="M16.8676 15.0334C16.2601 15.0334 15.7676 15.526 15.7676 16.1334C15.7676 16.7409 16.2601 17.2334 16.8676 17.2334C17.4751 17.2334 17.9676 16.741 17.9676 16.1334C17.9669 15.5262 17.4748 15.0341 16.8676 15.0334ZM16.8676 16.5001C16.6651 16.5001 16.5009 16.336 16.5009 16.1334C16.5009 15.9309 16.6651 15.7668 16.8676 15.7668C17.0701 15.7668 17.2342 15.9309 17.2342 16.1334C17.2341 16.3359 17.07 16.4999 16.8676 16.5001Z"/>
<path id="Vector_3" d="M21.7205 9.81411L19.1947 6.96958C18.9854 6.73394 18.6852 6.5994 18.37 6.60005H15.0333V4.40005C15.0327 3.79281 14.5406 3.30069 13.9333 3.30005H1.1C0.492766 3.30069 0.000644567 3.79281 3.58087e-08 4.40005V13.9334C-4.29329e-05 14.0306 0.038586 14.1239 0.107379 14.1927C0.176129 14.2615 0.269414 14.3001 0.366695 14.3001H0.733348V15.4001C0.733992 16.0073 1.22611 16.4994 1.83335 16.5001H2.59596C2.77668 17.7625 3.85804 18.7001 5.13335 18.7001C6.40866 18.7001 7.49001 17.7625 7.67074 16.5001H14.3293C14.5101 17.7625 15.5914 18.7001 16.8667 18.7001C18.1421 18.7001 19.2234 17.7625 19.4041 16.5001H20.9C21.5072 16.4994 21.9994 16.0073 22 15.4001V10.5453C21.9997 10.2755 21.9003 10.0153 21.7205 9.81411ZM0.733348 13.5667V4.40005C0.733562 4.19762 0.897574 4.03357 1.1 4.0334H13.9333C14.1358 4.03361 14.2998 4.19762 14.3 4.40005V13.5667H0.733348ZM2.59596 15.7667H1.83335C1.63092 15.7665 1.46687 15.6025 1.4667 15.4V14.3H3.34056C2.93777 14.6937 2.67605 15.2092 2.59596 15.7667ZM5.13335 17.9667C4.12083 17.9667 3.3 17.1459 3.3 16.1334C3.3 15.1208 4.12083 14.3 5.13335 14.3C6.14586 14.3 6.9667 15.1209 6.9667 16.1334C6.96549 17.1454 6.14535 17.9655 5.13335 17.9667ZM8.8 15.7667H7.6707C7.5906 15.2092 7.32892 14.6937 6.92613 14.3H8.8V15.7667ZM12.1 15.7667H9.53335V14.3H12.1V15.7667ZM14.3293 15.7667H12.8333V14.3H15.0739C14.6711 14.6937 14.4094 15.2092 14.3293 15.7667ZM16.8667 17.9667C15.8541 17.9667 15.0333 17.1459 15.0333 16.1334C15.0333 15.1208 15.8541 14.3 16.8667 14.3C17.8792 14.3 18.7 15.1208 18.7 16.1334C18.6988 17.1454 17.8787 17.9655 16.8667 17.9667ZM21.2667 15.4C21.2664 15.6025 21.1024 15.7665 20.9 15.7667H19.404C19.2212 14.5054 18.1411 13.569 16.8667 13.5667H15.0333V7.3334H16.5V11C16.5006 11.6073 16.9928 12.0994 17.6 12.1H21.2667V15.4ZM21.2667 11.3667H17.6C17.3976 11.3665 17.2335 11.2025 17.2333 11V7.3334H18.37C18.4753 7.3328 18.5758 7.3774 18.6459 7.45586L21.1727 10.3015C21.2328 10.3685 21.2663 10.4552 21.2667 10.5453V11.3667H21.2667Z"/>
</g>
</g>
</g>
</g>
<defs>
<clipPath id="clip0_0_674">
<rect width="22" height="22"/>
</clipPath>
</defs>
</symbol> -->

<!-- 
<symbol id="facebook" viewBox="0 0 13 13">
<g clip-path="url(#clip0_0_743)">
<path id="Vector" d="M7.38412 12.8505H5.35566C5.01685 12.8505 4.74123 12.5749 4.74123 12.2361V7.6608H3.55779C3.21897 7.6608 2.94336 7.38509 2.94336 7.04637V5.08585C2.94336 4.74704 3.21897 4.47142 3.55779 4.47142H4.74123V3.48967C4.74123 2.51622 5.0469 1.68802 5.62509 1.09476C6.20589 0.498784 7.01756 0.183838 7.97236 0.183838L9.51935 0.18635C9.85759 0.18693 10.1327 0.462545 10.1327 0.800781V2.62107C10.1327 2.95989 9.8572 3.2355 9.51848 3.2355L8.47691 3.23589C8.15926 3.23589 8.07837 3.29958 8.06107 3.3191C8.03256 3.35147 7.99864 3.44299 7.99864 3.6957V4.47132H9.44021C9.54873 4.47132 9.65388 4.49809 9.74423 4.54854C9.93915 4.65745 10.0603 4.86339 10.0603 5.08595L10.0596 7.04646C10.0596 7.38509 9.78395 7.6607 9.44514 7.6607H7.99864V12.2361C7.99864 12.5749 7.72293 12.8505 7.38412 12.8505ZM5.48381 12.1079H7.25597V7.32836C7.25597 7.10213 7.44007 6.91813 7.6662 6.91813H9.31699L9.31767 5.21399H7.66611C7.43997 5.21399 7.25597 5.02999 7.25597 4.80376V3.6957C7.25597 3.40559 7.28545 3.07566 7.50443 2.82769C7.76903 2.52791 8.18603 2.49332 8.47672 2.49332L9.39015 2.49293V0.928731L7.97178 0.926412C6.43734 0.926412 5.48381 1.90865 5.48381 3.48967V4.80376C5.48381 5.0299 5.2998 5.21399 5.07367 5.21399H3.68593V6.91813H5.07367C5.2998 6.91813 5.48381 7.10213 5.48381 7.32836V12.1079ZM9.5179 0.928925H9.518H9.5179Z"/>
</g>
<defs>
<clipPath id="clip0_0_743">
<rect width="12.6419" height="12.6667" transform="translate(0.208984 0.208496)"/>
</clipPath>
</defs>
</symbol> -->

</svg>
