<?xml version="1.0" encoding="UTF-8"?>
<svg style="width: 0; height: 0;" xmlns="http://www.w3.org/2000/svg" xmlns:xlink="http://www.w3.org/1999/xlink" width="0" height="0">

<symbol id="header-search" xmlns="http://www.w3.org/2000/svg" viewBox="0 0 32 32" fill="none">
<path fill-rule="evenodd" clip-rule="evenodd" d="M3 13C3 7.47715 7.47715 3 13 3C18.5228 3 23 7.47715 23 13C23 15.7673 21.8773 18.2705 20.06 20.0821C18.2502 21.8864 15.7561 23 13 23C7.47715 23 3 18.5228 3 13ZM13 1C6.37258 1 1 6.37258 1 13C1 19.6274 6.37258 25 13 25C15.9533 25 18.6587 23.9321 20.7488 22.163L29.2929 30.7071L30.7071 29.2929L22.163 20.7488C23.9321 18.6587 25 15.9533 25 13C25 6.37258 19.6274 1 13 1Z" fill="#BFBFBF"/>
</symbol>

<symbol id="navbar-arrow" xmlns="http://www.w3.org/2000/svg" viewBox="0 0 16 11" fill="none">
<path d="M15 1C15 1 10 6 8 9C6 6 1 0.999999 1 0.999999" stroke="#51555A" stroke-width="2"/>
</symbol>

<symbol id="navbar-line" xmlns="http://www.w3.org/2000/svg" viewBox="0 0 24 24" fill="none">
<path d="M18 12L12 12L6 12.0001" stroke="#1DC4B0" stroke-width="2"/>
</symbol>

<symbol id="hero-arrow" xmlns="http://www.w3.org/2000/svg" viewBox="0 0 16 95" fill="none">
<path d="M8 0V93M8 93C10 89.9838 15 85 15 85M8 93C6 89.9838 1 85 1 85" stroke="#1DC4B0" stroke-width="2"/>
</symbol>

<symbol id="main-arrow-left" xmlns="http://www.w3.org/2000/svg" viewBox="0 0 32 32" fill="none">
<path fill-rule="evenodd" clip-rule="evenodd" d="M22 29.0001C22.7416 28.3292 22.7416 28.3291 22.7415 28.329L22.7411 28.3286L22.7398 28.3271L22.7348 28.3217L22.7159 28.3009L22.643 28.2208C22.5791 28.1508 22.485 28.048 22.3636 27.9162C22.1207 27.6526 21.7682 27.2726 21.3278 26.8053C20.4475 25.8711 19.2148 24.5862 17.8053 23.184C15.3763 20.7673 12.3758 17.9547 9.73673 16.0001C12.3758 14.0454 15.3763 11.2328 17.8053 8.81611C19.2148 7.41386 20.4475 6.12906 21.3278 5.19479C21.7682 4.7275 22.1207 4.34751 22.3636 4.08391C22.485 3.9521 22.5791 3.84935 22.643 3.77932L22.7159 3.69923L22.7348 3.67843L22.7398 3.67299L22.7411 3.67153L22.7415 3.67111C22.7416 3.67099 22.7416 3.67091 22 3.00006L21.2584 2.32921L21.2582 2.32943L21.2573 2.33051L21.253 2.33517L21.2356 2.35438L21.1657 2.43118C21.1038 2.49897 21.0119 2.59936 20.8927 2.7287C20.6544 2.98742 20.3069 3.3619 19.8723 3.82318C19.0026 4.74605 17.7853 6.01482 16.3947 7.39829C13.5959 10.1828 10.157 13.3695 7.44731 15.1667L6.19086 16.0001L7.44731 16.8334C10.157 18.6306 13.5959 21.8173 16.3947 24.6018C17.7853 25.9853 19.0026 27.2541 19.8723 28.1769C20.3069 28.6382 20.6544 29.0127 20.8927 29.2714C21.0119 29.4008 21.1038 29.5011 21.1657 29.5689L21.2356 29.6457L21.2531 29.6649L21.2573 29.6696L21.2582 29.6707L21.2584 29.6709L22 29.0001Z" fill="#292D33"/>
</symbol>

</svg>
